<svg width="32" height="32" viewBox="0 0 32 32" fill="none" xmlns="http://www.w3.org/2000/svg">
<path d="M24 13H22C21.9992 12.2046 21.6829 11.442 21.1204 10.8796C20.558 10.3171 19.7954 10.0008 19 10V8C20.3256 8.00159 21.5964 8.52888 22.5338 9.46622C23.4711 10.4036 23.9984 11.6744 24 13V13Z" fill="#2A2A2A"/>
<path d="M28 13H26C25.9979 11.1441 25.2597 9.36489 23.9474 8.05259C22.6351 6.7403 20.8559 6.00212 19 6V4C21.3861 4.00265 23.6738 4.95171 25.361 6.63896C27.0483 8.32622 27.9974 10.6139 28 13V13Z" fill="#2A2A2A"/>
<path d="M26 29H25.83C6.18004 27.87 3.39004 11.29 3.00004 6.23C2.93908 5.43675 3.19572 4.65177 3.7135 4.04772C4.23128 3.44368 4.96779 3.07004 5.76104 3.009C5.84037 3.003 5.92004 3 6.00004 3H11.27C11.6706 2.99961 12.062 3.11951 12.3937 3.34416C12.7253 3.56881 12.9818 3.88787 13.13 4.26L14.65 8C14.7964 8.36355 14.8327 8.76208 14.7545 9.14609C14.6763 9.5301 14.4869 9.88267 14.21 10.16L12.08 12.31C12.4114 14.2013 13.3164 15.945 14.6724 17.3045C16.0283 18.664 17.7696 19.5737 19.66 19.91L21.83 17.76C22.1115 17.4862 22.4674 17.3013 22.8533 17.2283C23.2392 17.1554 23.638 17.1977 24 17.35L27.77 18.86C28.1366 19.0129 28.4493 19.2714 28.6683 19.6027C28.8874 19.9339 29.0028 20.3229 29 20.72V26C29 26.7956 28.684 27.5587 28.1214 28.1213C27.5587 28.6839 26.7957 29 26 29ZM6.00004 5C5.86871 4.99961 5.7386 5.02508 5.61712 5.07497C5.49565 5.12486 5.38519 5.19819 5.29205 5.29077C5.19891 5.38335 5.12492 5.49337 5.0743 5.61455C5.02368 5.73572 4.99743 5.86568 4.99704 5.997C4.99704 6.025 4.99804 6.05267 5.00004 6.08C5.46004 12 8.41004 26 25.94 27C26.2047 27.0159 26.4648 26.926 26.6632 26.7501C26.8616 26.5742 26.9821 26.3267 26.998 26.062L27 26V20.72L23.23 19.21L20.36 22.06L19.88 22C11.18 20.91 10 12.21 10 12.12L9.94003 11.64L12.78 8.77L11.28 5H6.00004Z" fill="#2A2A2A"/>
</svg>
