<svg width="27" height="27" viewBox="0 0 27 27" fill="none" xmlns="http://www.w3.org/2000/svg">
<g clip-path="url(#clip0_426_6131)">
<path d="M13.5 5.90625C13.5 5.68247 13.4111 5.46786 13.2529 5.30963C13.0946 5.1514 12.88 5.0625 12.6563 5.0625C12.4325 5.0625 12.2179 5.1514 12.0596 5.30963C11.9014 5.46786 11.8125 5.68247 11.8125 5.90625V15.1875C11.8125 15.3362 11.8519 15.4823 11.9266 15.6109C12.0013 15.7395 12.1086 15.8461 12.2377 15.9199L18.144 19.2949C18.3378 19.3996 18.5649 19.4244 18.7768 19.3639C18.9886 19.3035 19.1684 19.1625 19.2777 18.9712C19.3871 18.7799 19.4172 18.5535 19.3618 18.3402C19.3063 18.127 19.1697 17.9439 18.981 17.8301L13.5 14.6981V5.90625Z" fill="#2A2A2A"/>
<path d="M13.5 27C17.0804 27 20.5142 25.5777 23.0459 23.0459C25.5777 20.5142 27 17.0804 27 13.5C27 9.91958 25.5777 6.4858 23.0459 3.95406C20.5142 1.42232 17.0804 0 13.5 0C9.91958 0 6.4858 1.42232 3.95406 3.95406C1.42232 6.4858 0 9.91958 0 13.5C0 17.0804 1.42232 20.5142 3.95406 23.0459C6.4858 25.5777 9.91958 27 13.5 27V27ZM25.3125 13.5C25.3125 16.6329 24.068 19.6374 21.8527 21.8527C19.6374 24.068 16.6329 25.3125 13.5 25.3125C10.3671 25.3125 7.36257 24.068 5.1473 21.8527C2.93203 19.6374 1.6875 16.6329 1.6875 13.5C1.6875 10.3671 2.93203 7.36257 5.1473 5.1473C7.36257 2.93203 10.3671 1.6875 13.5 1.6875C16.6329 1.6875 19.6374 2.93203 21.8527 5.1473C24.068 7.36257 25.3125 10.3671 25.3125 13.5V13.5Z" fill="#2A2A2A"/>
</g>
<defs>
<clipPath id="clip0_426_6131">
<rect width="27" height="27" fill="white"/>
</clipPath>
</defs>
</svg>
