<?xml version="1.0" encoding="utf-8"?>
<!-- Svg Vector Icons : http://www.onlinewebfonts.com/icon -->
<!DOCTYPE svg PUBLIC "-//W3C//DTD SVG 1.1//EN" "http://www.w3.org/Graphics/SVG/1.1/DTD/svg11.dtd">
<svg version="1.1" xmlns="http://www.w3.org/2000/svg" xmlns:xlink="http://www.w3.org/1999/xlink" x="0px" y="0px" viewBox="0 0 1000 1000" enable-background="new 0 0 1000 1000" xml:space="preserve">
<metadata> Svg Vector Icons : http://www.onlinewebfonts.com/icon </metadata>
<g><path d="M964.9,732.4c13.9,0,25.1-11.1,25.1-24.8v-493c0-19.9-6.3-38.3-16.9-53.5c-0.4-0.7-0.5-1.5-1-2.2c-0.8-1.1-2-1.7-2.9-2.6c-17.4-21.8-44.1-36.1-74.5-36.1H105.3c-52.7,0-95.3,42.2-95.3,94.2v571c0,52.1,42.7,94.2,95.3,94.2h789.4c52.7,0,95.3-42.1,95.3-94.2V707c-0.1-13.6-11.2-24.7-25.1-24.7c-13.8,0-25,11.1-25.1,24.7v73.6c0,27.4-22.5,49.6-50.2,49.6H110.3c-27.7,0-50.2-22.2-50.2-49.6V219.5c0-2.7,0.4-5.3,0.8-7.9l438.5,353.7c0,0,0.1,0,0.1,0.1c3.9,2.9,8.4,4.1,12.8,4.6c1.3,0.2,2.6,0.1,3.9,0.2c1.3,0,2.6,0,3.9-0.2c4.5-0.5,9-1.7,12.9-4.6c0,0,0.1-0.1,0.1-0.1l406.3-349.4c0.1,1.2,0.4,2.4,0.4,3.6v488.1C939.9,721.2,951.1,732.4,964.9,732.4L964.9,732.4L964.9,732.4z M110.3,169.8h779.3c6.6,0,12.9,1.3,18.7,3.6l-392,338.7L96.1,172.2C100.6,170.8,105.3,169.8,110.3,169.8L110.3,169.8L110.3,169.8z"/></g>
</svg>