<svg width="26" height="35" viewBox="0 0 26 35" fill="none" xmlns="http://www.w3.org/2000/svg">
<path d="M13 5.09375C11.8038 5.09375 10.6344 5.44848 9.63972 6.11308C8.64508 6.77768 7.86985 7.7223 7.41206 8.82749C6.95428 9.93267 6.8345 11.1488 7.06788 12.3221C7.30126 13.4953 7.8773 14.573 8.72318 15.4189C9.56905 16.2648 10.6468 16.8408 11.82 17.0742C12.9933 17.3076 14.2094 17.1878 15.3146 16.73C16.4198 16.2722 17.3644 15.497 18.029 14.5024C18.6936 13.5077 19.0483 12.3383 19.0483 11.1421C19.0483 9.53797 18.4111 7.99955 17.2768 6.86527C16.1425 5.73098 14.6041 5.09375 13 5.09375V5.09375ZM13 15.0793C12.2213 15.0793 11.4601 14.8484 10.8126 14.4158C10.1651 13.9831 9.66048 13.3682 9.36248 12.6488C9.06448 11.9294 8.98651 11.1377 9.13843 10.374C9.29035 9.61022 9.66533 8.90868 10.216 8.35805C10.7666 7.80742 11.4681 7.43243 12.2319 7.28051C12.9956 7.1286 13.7873 7.20657 14.5067 7.50456C15.2261 7.80256 15.8411 8.30721 16.2737 8.95468C16.7063 9.60215 16.9372 10.3634 16.9372 11.1421C16.9344 12.1845 16.5184 13.1832 15.7803 13.9193C15.0422 14.6554 14.0424 15.0688 13 15.0687V15.0793Z" fill="#2A2A2A"/>
<path d="M12.9999 0.111328C9.71203 0.114074 6.55886 1.41777 4.22906 3.73768C1.89926 6.05759 0.582161 9.20519 0.56543 12.493C0.56543 17.4224 3.33099 21.5497 5.35765 24.558L5.7271 25.1069C7.7435 28.0293 9.90665 30.8478 12.2082 33.5513L13.0104 34.4908L13.8127 33.5513C16.1139 30.8475 18.2771 28.0291 20.2938 25.1069L20.6632 24.5474C22.6793 21.5391 25.4449 17.4224 25.4449 12.493C25.4281 9.20336 24.1096 6.05418 21.7775 3.73396C19.4454 1.41375 16.2896 0.111286 12.9999 0.111328V0.111328ZM18.9004 23.3336L18.5204 23.893C16.7049 26.6163 14.2982 29.6669 12.9999 31.1763C11.7543 29.6669 9.29488 26.6163 7.47932 23.893L7.10987 23.3336C5.24154 20.5469 2.67654 16.7363 2.67654 12.4508C2.67654 11.0951 2.94356 9.75269 3.46236 8.50021C3.98115 7.24772 4.74157 6.10968 5.70018 5.15107C6.65879 4.19246 7.79682 3.43205 9.04931 2.91326C10.3018 2.39446 11.6442 2.12744 12.9999 2.12744C14.3556 2.12744 15.698 2.39446 16.9504 2.91326C18.2029 3.43205 19.341 4.19246 20.2996 5.15107C21.2582 6.10968 22.0186 7.24772 22.5374 8.50021C23.0562 9.75269 23.3232 11.0951 23.3232 12.4508C23.3232 16.7786 20.7688 20.5891 18.9004 23.3336V23.3336Z" fill="#2A2A2A"/>
</svg>
