<svg width="29" height="18" viewBox="0 0 29 18" fill="none" xmlns="http://www.w3.org/2000/svg">
<path fill-rule="evenodd" clip-rule="evenodd" d="M10.2358 1.87695H17.8495V15.6164H10.2358V1.87695Z" fill="#929292"/>
<path fill-rule="evenodd" clip-rule="evenodd" d="M10.7322 8.74574C10.7322 5.95924 12.0288 3.47623 14.0428 1.87606C12.5806 0.717316 10.7046 0 8.69057 0C3.89006 0 0 3.91765 0 8.74574C0 13.5738 3.89006 17.4915 8.69057 17.4915C10.7322 17.4915 12.5806 16.7742 14.0428 15.6154C12.0288 14.0153 10.7322 11.5322 10.7322 8.74574Z" fill="#929292"/>
<path fill-rule="evenodd" clip-rule="evenodd" d="M28.1134 8.74574C28.1134 13.5738 24.2233 17.4915 19.4228 17.4915C17.3813 17.4915 15.5328 16.7742 14.0706 15.6154C16.0846 14.0153 17.3813 11.5322 17.3813 8.74574C17.3813 5.95924 16.0846 3.47623 14.043 1.87606C15.5328 0.717316 17.4088 0 19.4228 0C24.2233 0 28.1134 3.91765 28.1134 8.74574Z" fill="#929292"/>
</svg>
