<svg width="34" height="34" viewBox="0 0 34 34" fill="none" xmlns="http://www.w3.org/2000/svg">
<path d="M14.4075 7.08286C14.6191 7.08214 14.8282 7.12885 15.0194 7.21956C15.2107 7.31027 15.3791 7.44267 15.5125 7.60703L22.355 16.107C22.5633 16.3605 22.6772 16.6785 22.6772 17.0066C22.6772 17.3347 22.5633 17.6527 22.355 17.9062L15.2716 26.4062C15.0312 26.6955 14.6856 26.8774 14.311 26.912C13.9364 26.9465 13.5634 26.8308 13.2741 26.5904C12.9848 26.3499 12.8029 26.0044 12.7684 25.6298C12.7338 25.2551 12.8495 24.8822 13.09 24.5929L19.4225 16.9995L13.3025 9.40619C13.1292 9.19825 13.0192 8.94503 12.9854 8.67651C12.9515 8.40798 12.9953 8.13538 13.1116 7.89096C13.2278 7.64655 13.4117 7.44055 13.6413 7.29734C13.871 7.15413 14.1368 7.0797 14.4075 7.08286Z" fill="#2A2A2A"/>
</svg>
