<svg width="34" height="34" viewBox="0 0 34 34" fill="none" xmlns="http://www.w3.org/2000/svg">
<path d="M19.5925 26.9171C19.3809 26.9179 19.1718 26.8711 18.9806 26.7804C18.7893 26.6897 18.6209 26.5573 18.4875 26.393L11.645 17.893C11.4367 17.6395 11.3228 17.3215 11.3228 16.9934C11.3228 16.6653 11.4367 16.3473 11.645 16.0938L18.7284 7.59381C18.9688 7.3045 19.3144 7.12256 19.689 7.08803C20.0636 7.05349 20.4366 7.16918 20.7259 7.40964C21.0152 7.6501 21.1971 7.99564 21.2316 8.37025C21.2662 8.74485 21.1505 9.11783 20.91 9.40714L14.5775 17.0005L20.6975 24.5938C20.8708 24.8018 20.9808 25.055 21.0146 25.3235C21.0485 25.592 21.0047 25.8646 20.8884 26.109C20.7722 26.3535 20.5883 26.5595 20.3587 26.7027C20.129 26.8459 19.8632 26.9203 19.5925 26.9171Z" fill="#2A2A2A"/>
</svg>
