<svg width="14" height="14" viewBox="0 0 14 14" fill="none" xmlns="http://www.w3.org/2000/svg">
<path d="M8.75 0.583008H5.25V1.74967H8.75V0.583008ZM6.41667 8.16634H7.58333V4.66634H6.41667V8.16634ZM11.1008 4.31051L11.9292 3.48217C11.6783 3.18467 11.4042 2.90467 11.1067 2.65967L10.2783 3.48801C9.34928 2.74036 8.19253 2.33283 7 2.33301C4.10083 2.33301 1.75 4.68384 1.75 7.58301C1.75 10.4822 4.095 12.833 7 12.833C7.98835 12.8335 8.95674 12.5549 9.79366 12.0292C10.6306 11.5034 11.302 10.752 11.7305 9.86135C12.159 8.97075 12.3273 7.9772 12.2159 6.99515C12.1045 6.01311 11.718 5.0825 11.1008 4.31051ZM7 11.6663C4.7425 11.6663 2.91667 9.84051 2.91667 7.58301C2.91667 5.32551 4.7425 3.49967 7 3.49967C9.2575 3.49967 11.0833 5.32551 11.0833 7.58301C11.0833 9.84051 9.2575 11.6663 7 11.6663Z" fill="#2A2A2A"/>
</svg>
