<svg width="31" height="31" viewBox="0 0 31 31" fill="none" xmlns="http://www.w3.org/2000/svg">
<path fill-rule="evenodd" clip-rule="evenodd" d="M15.5615 22.2585H16.8015C16.8015 22.2585 17.1735 22.1965 17.3595 22.0105C17.5455 21.8245 17.5455 21.4525 17.5455 21.4525C17.5455 21.4525 17.5455 19.8405 18.2895 19.5925C19.0335 19.3445 20.0255 21.2045 21.0175 21.8865C21.7615 22.4445 22.3195 22.3205 22.3195 22.3205L25.0475 22.2585C25.0475 22.2585 26.4735 22.1965 25.7915 21.0185C25.7295 20.9565 25.4195 20.2125 23.7455 18.6625C22.0095 17.0505 22.2575 17.3605 24.3035 14.5705C25.5435 12.8965 26.0395 11.9045 25.9155 11.4085C25.7915 10.9745 24.8615 11.0985 24.8615 11.0985H21.7615C21.7615 11.0985 21.5135 11.0365 21.3895 11.1605C21.2035 11.2845 21.1415 11.4705 21.1415 11.4705C21.1415 11.4705 20.6455 12.7725 20.0255 13.8885C18.6615 16.1825 18.1035 16.3065 17.9175 16.1825C17.4215 15.8725 17.5455 14.8185 17.5455 14.1365C17.5455 11.9045 17.9175 10.9745 16.8635 10.7265C16.5535 10.6645 16.3055 10.6025 15.4375 10.6025C14.3215 10.6025 13.3915 10.6025 12.8955 10.8505C12.5235 11.0365 12.2755 11.4085 12.4615 11.4085C12.6475 11.4085 13.1435 11.5325 13.3915 11.8425C13.6395 12.4005 13.6395 13.3305 13.6395 13.3305C13.6395 13.3305 13.8255 15.9965 13.2055 16.3065C12.7715 16.5545 12.2135 16.0585 10.9735 13.9505C10.3535 12.8965 9.85753 11.6565 9.85753 11.6565C9.85753 11.6565 9.79553 11.4085 9.60953 11.2845C9.42353 11.1605 9.11353 11.0985 9.11353 11.0985H6.19953C6.19953 11.0985 5.76553 11.0985 5.57953 11.2845C5.45553 11.4705 5.57953 11.7805 5.57953 11.7805C5.57953 11.7805 7.87353 17.1125 10.4775 19.8405C12.8955 22.4445 15.5615 22.2585 15.5615 22.2585Z" fill="#2A2A2A"/>
</svg>
