<svg width="27" height="27" viewBox="0 0 27 27" fill="none" xmlns="http://www.w3.org/2000/svg">
<path d="M24.3 6.01867C24.2998 5.5648 24.1236 5.1287 23.8085 4.80202C23.4934 4.47535 23.0639 4.28354 22.6104 4.26691V4.26367H4.54899V4.26853C4.51767 4.26691 4.48662 4.26367 4.45503 4.26367C4.09207 4.26391 3.73812 4.37667 3.44192 4.58643C3.14572 4.79619 2.92183 5.09262 2.80111 5.43491C2.68038 5.77719 2.66874 6.14849 2.7678 6.49767C2.86686 6.84684 3.07175 7.15671 3.35424 7.3846L11.492 15.5221L11.4918 20.5439V20.5854H11.4958C11.5026 20.7403 11.5486 20.8909 11.6295 21.0231C11.7104 21.1553 11.8236 21.2649 11.9583 21.3414L11.9559 21.3458L14.0813 22.5729C14.0992 22.5853 14.1189 22.5942 14.1375 22.6053L14.1451 22.6096V22.6094C14.2806 22.6877 14.4361 22.736 14.6041 22.736C14.7252 22.736 14.8451 22.7122 14.9571 22.6659C15.069 22.6195 15.1707 22.5516 15.2563 22.4659C15.342 22.3803 15.4099 22.2786 15.4562 22.1667C15.5026 22.0548 15.5264 21.9348 15.5264 21.8137C15.5264 21.7894 15.521 21.7664 15.5194 21.7427H15.5264V15.5297L23.739 7.31737L23.7309 7.30927C23.9102 7.14551 24.0535 6.94616 24.1515 6.72395C24.2494 6.50174 24.3001 6.26154 24.3 6.01867ZM8.70726 7.77367H8.71104L8.71131 7.77772L8.70726 7.77367Z" fill="#F9A43F"/>
</svg>
