<svg width="25" height="25" viewBox="0 0 25 25" fill="none" xmlns="http://www.w3.org/2000/svg">
<path d="M10.5936 5.20833C10.7492 5.2078 10.903 5.24215 11.0436 5.30884C11.1842 5.37554 11.3081 5.47289 11.4061 5.59375L16.4373 11.8437C16.5906 12.0301 16.6743 12.2639 16.6743 12.5052C16.6743 12.7465 16.5906 12.9803 16.4373 13.1667L11.229 19.4167C11.0522 19.6294 10.7981 19.7632 10.5227 19.7886C10.2472 19.814 9.97299 19.7289 9.76027 19.5521C9.54754 19.3753 9.41377 19.1212 9.38837 18.8458C9.36298 18.5703 9.44804 18.2961 9.62485 18.0833L14.2811 12.5L9.7811 6.91666C9.65372 6.76376 9.57281 6.57758 9.54793 6.38013C9.52306 6.18268 9.55526 5.98224 9.64074 5.80252C9.72621 5.62281 9.86138 5.47134 10.0302 5.36604C10.1991 5.26073 10.3946 5.20601 10.5936 5.20833Z" fill="white"/>
</svg>
