<svg width="25" height="25" viewBox="0 0 25 25" fill="none" xmlns="http://www.w3.org/2000/svg">
<path d="M14.4062 19.7917C14.2505 19.7922 14.0968 19.7579 13.9562 19.6912C13.8156 19.6245 13.6917 19.5271 13.5937 19.4063L8.56241 13.1563C8.4092 12.9699 8.32544 12.7361 8.32544 12.4948C8.32544 12.2535 8.4092 12.0197 8.56241 11.8333L13.7707 5.58334C13.9476 5.37061 14.2016 5.23683 14.4771 5.21144C14.7525 5.18604 15.0268 5.27111 15.2395 5.44792C15.4522 5.62473 15.586 5.8788 15.6114 6.15425C15.6368 6.42969 15.5517 6.70394 15.3749 6.91667L10.7187 12.5L15.2187 18.0833C15.346 18.2362 15.4269 18.4224 15.4518 18.6199C15.4767 18.8173 15.4445 19.0178 15.359 19.1975C15.2735 19.3772 15.1384 19.5287 14.9695 19.634C14.8006 19.7393 14.6051 19.794 14.4062 19.7917Z" fill="white"/>
</svg>
