<?xml version="1.0" encoding="utf-8"?><svg viewBox="0 0 1000 1000" xmlns="http://www.w3.org/2000/svg" xmlns:xlink="http://www.w3.org/1999/xlink"><style>:root>svg{display:none}:root>svg:target{display:block}</style><svg viewBox="0 0 20 20" id="arrow-right" xmlns="http://www.w3.org/2000/svg"><path d="M6 15l5-5-5-5 1-2 7 7-7 7-1-2z"/></svg><svg viewBox="0 0 22 22" id="btn-cart" xmlns="http://www.w3.org/2000/svg"><path d="M8.146 19.556a1.375 1.375 0 100-2.75 1.375 1.375 0 000 2.75zm8.354 0a1.375 1.375 0 100-2.75 1.375 1.375 0 000 2.75zm3.715-16.274a.61.61 0 00-.47-.226H7.022l.397 1.222h11.525l-1.631 7.333H8.146L5.353 2.77a.611.611 0 00-.403-.398l-2.506-.77a.614.614 0 00-.36 1.174l2.194.672 2.805 8.861-1.002.819-.08.08a1.626 1.626 0 00-.049 2.071 1.68 1.68 0 001.381.611h10.2a.611.611 0 100-1.222H7.236a.41.41 0 01-.343-.611l1.473-1.222h9.436a.61.61 0 00.61-.477L20.35 3.8a.61.61 0 00-.135-.52z"/></svg><svg viewBox="0 0 32 32" id="c-phone" xmlns="http://www.w3.org/2000/svg"><path d="M24 13h-2a3.003 3.003 0 00-3-3V8a5.006 5.006 0 015 5z"/><path d="M28 13h-2a7.008 7.008 0 00-7-7V4a9.01 9.01 0 019 9zm-2 16h-.17C6.18 27.87 3.39 11.29 3 6.23A3 3 0 016 3h5.27a2 2 0 011.86 1.26L14.65 8a2 2 0 01-.44 2.16l-2.13 2.15a9.36 9.36 0 007.58 7.6l2.17-2.15a2.001 2.001 0 012.17-.41l3.77 1.51A2 2 0 0129 20.72V26a3 3 0 01-3 3zM6 5a1 1 0 00-1 1.08C5.46 12 8.41 26 25.94 27a1 1 0 001.058-.938L27 26v-5.28l-3.77-1.51-2.87 2.85-.48-.06c-8.7-1.09-9.88-9.79-9.88-9.88l-.06-.48 2.84-2.87L11.28 5H6z"/></svg><svg viewBox="0 0 30 27" id="cart" xmlns="http://www.w3.org/2000/svg"><path d="M28.741 6.208a2.917 2.917 0 00-2.48-1.458H7.596L6.75 1.454A1.458 1.458 0 005.291.374H2.374a1.458 1.458 0 100 2.918h1.809l4.025 14.962a1.458 1.458 0 001.458 1.08h13.125a1.458 1.458 0 001.298-.803l4.783-9.567a2.917 2.917 0 00-.131-2.756zM8.938 26.625a2.188 2.188 0 100-4.375 2.188 2.188 0 000 4.375zm14.582 0a2.187 2.187 0 100-4.375 2.187 2.187 0 000 4.375z"/></svg><svg viewBox="0 0 27 27" id="clock" xmlns="http://www.w3.org/2000/svg"><g clip-path="url(#ea)"><path d="M13.5 5.906a.844.844 0 00-1.688 0v9.282a.843.843 0 00.426.732l5.906 3.375a.844.844 0 00.837-1.465L13.5 14.698V5.906z"/><path d="M13.5 27a13.5 13.5 0 100-27 13.5 13.5 0 000 27zm11.813-13.5a11.812 11.812 0 11-23.625 0 11.812 11.812 0 0123.625 0z"/></g><defs><clipPath id="ea"><path d="M0 0h27v27H0z"/></clipPath></defs></svg><svg viewBox="0 0 24 27" id="delete" xmlns="http://www.w3.org/2000/svg"><path d="M23.875 6.5a1.25 1.25 0 01-1.104 1.241l-.146.009h-1.056L20.03 23.4a3.437 3.437 0 01-3.421 3.1H7.39a3.437 3.437 0 01-3.421-3.1L2.431 7.75H1.375a1.25 1.25 0 010-2.5h6.25a4.375 4.375 0 118.75 0h6.25a1.25 1.25 0 011.25 1.25zm-9.063 4.063a.938.938 0 00-.928.81l-.009.127v8.75l.009.128a.938.938 0 001.857 0l.009-.128V11.5l-.009-.127a.938.938 0 00-.928-.81zm-5.624 0a.937.937 0 00-.93.81l-.008.127v8.75l.009.128a.938.938 0 001.857 0l.009-.128V11.5l-.009-.127a.938.938 0 00-.928-.81zM12 3.375a1.875 1.875 0 00-1.875 1.875h3.75A1.875 1.875 0 0012 3.375z"/></svg><svg viewBox="0 0 15 13" id="discount-check" xmlns="http://www.w3.org/2000/svg"><path d="M1.167 6.5l4.75 4.75 7.917-9.5"/></svg><svg viewBox="0 0 15 15" id="discount-check-g" xmlns="http://www.w3.org/2000/svg"><path d="M1 7.5L5.875 14 14 1"/></svg><svg viewBox="0 0 23 23" id="facebook" xmlns="http://www.w3.org/2000/svg"><path d="M9.73 20.7h3.369v-8.395h2.817l.426-3.266h-3.243V6.946c0-.943.264-1.587 1.621-1.587h1.737V2.426a24.808 24.808 0 00-2.519-.126c-2.507 0-4.209 1.53-4.209 4.324v2.415H6.9v3.266h2.83V20.7z"/></svg><svg viewBox="0 0 27 27" id="faq-arrow" xmlns="http://www.w3.org/2000/svg"><path d="M6.75 8.1l6.75 6.75 6.75-6.75 2.7 1.35-9.45 9.45-9.45-9.45 2.7-1.35z"/></svg><svg viewBox="0 0 1000 1000" id="letter" xmlns="http://www.w3.org/2000/svg"><path d="M964.9 732.4c13.9 0 25.1-11.1 25.1-24.8v-493c0-19.9-6.3-38.3-16.9-53.5-.4-.7-.5-1.5-1-2.2-.8-1.1-2-1.7-2.9-2.6-17.4-21.8-44.1-36.1-74.5-36.1H105.3c-52.7 0-95.3 42.2-95.3 94.2v571c0 52.1 42.7 94.2 95.3 94.2h789.4c52.7 0 95.3-42.1 95.3-94.2V707c-.1-13.6-11.2-24.7-25.1-24.7-13.8 0-25 11.1-25.1 24.7v73.6c0 27.4-22.5 49.6-50.2 49.6H110.3c-27.7 0-50.2-22.2-50.2-49.6V219.5c0-2.7.4-5.3.8-7.9l438.5 353.7s.1 0 .1.1c3.9 2.9 8.4 4.1 12.8 4.6 1.3.2 2.6.1 3.9.2 1.3 0 2.6 0 3.9-.2 4.5-.5 9-1.7 12.9-4.6l.1-.1 406.3-349.4c.1 1.2.4 2.4.4 3.6v488.1c.1 13.6 11.3 24.8 25.1 24.8zM110.3 169.8h779.3c6.6 0 12.9 1.3 18.7 3.6l-392 338.7L96.1 172.2c4.5-1.4 9.2-2.4 14.2-2.4z"/></svg><svg viewBox="0 0 26 35" id="marker" xmlns="http://www.w3.org/2000/svg"><path d="M13 5.094a6.049 6.049 0 100 12.097 6.049 6.049 0 000-12.097zm0 9.985a3.937 3.937 0 113.937-3.937A3.937 3.937 0 0113 15.07v.01z"/><path d="M13 .111A12.445 12.445 0 00.565 12.493c0 4.93 2.766 9.057 4.793 12.065l.37.549a105.313 105.313 0 006.48 8.444l.802.94.803-.94a105.378 105.378 0 006.48-8.444l.37-.56c2.016-3.008 4.782-7.125 4.782-12.054A12.445 12.445 0 0013 .111zm5.9 23.223l-.38.559c-1.815 2.723-4.222 5.774-5.52 7.283-1.246-1.51-3.705-4.56-5.52-7.283l-.37-.56c-1.868-2.786-4.433-6.597-4.433-10.882a10.323 10.323 0 1120.646 0c0 4.328-2.554 8.138-4.423 10.883z"/></svg><svg viewBox="0 0 29 18" id="mc" xmlns="http://www.w3.org/2000/svg"><path fill-rule="evenodd" clip-rule="evenodd" d="M10.236 1.877h7.613v13.74h-7.613V1.876z"/><path fill-rule="evenodd" clip-rule="evenodd" d="M10.732 8.746a8.756 8.756 0 013.31-6.87A8.64 8.64 0 008.692 0C3.89 0 0 3.918 0 8.746s3.89 8.745 8.69 8.745a8.58 8.58 0 005.353-1.876 8.756 8.756 0 01-3.31-6.87zm17.381 0c0 4.828-3.89 8.745-8.69 8.745a8.58 8.58 0 01-5.352-1.876 8.756 8.756 0 003.31-6.87 8.697 8.697 0 00-3.338-6.869C15.533.717 17.409 0 19.423 0c4.8 0 8.69 3.918 8.69 8.746z"/></svg><svg viewBox="0 0 59 17" id="mir" xmlns="http://www.w3.org/2000/svg"><path d="M12.834 2.4l-2.179 7.547h-.373L8.104 2.4A2.995 2.995 0 005.224.244H0v16.429h5.231v-9.71h.373l2.995 9.71h3.74l2.988-9.71h.373v9.71h5.23V.244h-5.224c-1.33 0-2.5.88-2.872 2.156zm28.963 14.273h5.264v-4.858h5.295c2.77 0 5.128-1.566 6.04-3.767H41.798v8.625zM32.473 1.977L28.79 9.954h-.372V.244h-5.232v16.429h4.441c1.17 0 2.23-.68 2.719-1.733l3.682-7.97h.373v9.703h5.23V.244h-4.44c-1.17 0-2.23.68-2.718 1.733z"/><path fill-rule="evenodd" clip-rule="evenodd" d="M52.876.244a5.76 5.76 0 013.914 1.527 5.733 5.733 0 011.883 4.255c0 .347-.039.687-.097 1.02H48.86a7.356 7.356 0 01-7.018-5.133c-.013-.032-.02-.07-.032-.11-.026-.09-.045-.186-.07-.275a7.626 7.626 0 01-.187-1.284h11.323z"/></svg><svg viewBox="0 0 34 34" id="p-a-next" xmlns="http://www.w3.org/2000/svg"><path d="M14.408 7.083a1.416 1.416 0 011.104.524l6.843 8.5a1.417 1.417 0 010 1.8l-7.083 8.5a1.419 1.419 0 01-2.182-1.814L19.422 17l-6.12-7.594a1.416 1.416 0 011.106-2.323z"/></svg><svg viewBox="0 0 34 34" id="p-a-prev" xmlns="http://www.w3.org/2000/svg"><path d="M19.593 26.917a1.415 1.415 0 01-1.105-.524l-6.843-8.5a1.417 1.417 0 010-1.8l7.083-8.5a1.418 1.418 0 112.182 1.814L14.578 17l6.12 7.594a1.416 1.416 0 01-1.105 2.323z"/></svg><svg viewBox="0 0 20 20" id="pag-next" xmlns="http://www.w3.org/2000/svg"><path d="M6 15l5-5-5-5 1-2 7 7-7 7-1-2z"/></svg><svg viewBox="0 0 20 20" id="pag-prev" xmlns="http://www.w3.org/2000/svg"><path d="M14 5l-5 5 5 5-1 2-7-7 7-7 1 2z"/></svg><svg viewBox="0 0 28 27" id="phone" xmlns="http://www.w3.org/2000/svg"><path d="M19.25 16.875c-1.75 1.688-1.75 3.375-3.5 3.375s-3.5-1.688-5.25-3.375C8.75 15.187 7 13.5 7 11.812c0-1.687 1.75-1.687 3.5-3.374 1.75-1.688-3.5-6.75-5.25-6.75S0 6.75 0 6.75c0 3.375 3.596 10.218 7 13.5S17.5 27 21 27c0 0 5.25-3.375 5.25-5.063 0-1.687-5.25-6.75-7-5.062z"/></svg><svg viewBox="0 0 30 31" id="profile" xmlns="http://www.w3.org/2000/svg"><path d="M15 2.695c-2.046 0-3.643.744-4.794 2.233-1.15 1.488-1.726 3.39-1.726 5.707-.014 2.878.923 5.16 2.813 6.844.241.225.326.513.255.864l-.49 1.01c-.156.338-.387.6-.692.79-.306.19-.948.46-1.928.811l-2.696.864c-1.754.561-2.688.87-2.802.926-1.193.492-1.974 1.004-2.343 1.538C.199 25.166 0 27.405 0 31h30c0-3.595-.199-5.834-.597-6.718-.369-.534-1.15-1.046-2.343-1.538-.114-.056-1.048-.365-2.802-.926l-2.695-.864c-.98-.35-1.623-.621-1.929-.81a1.795 1.795 0 01-.692-.79l-.49-1.011c-.071-.351.014-.64.255-.864 1.89-1.684 2.827-3.966 2.813-6.844 0-2.317-.575-4.22-1.726-5.707-1.15-1.489-2.748-2.233-4.794-2.233z"/></svg><svg viewBox="0 0 502.664 502.664" id="sprite" xmlns="http://www.w3.org/2000/svg"><path d="M153.821 358.226L0 274.337v-46.463l153.821-83.414v54.574L46.636 250.523l107.185 53.431v54.272zm26.273 29.358L282.103 115.08h32.227L212.084 387.584h-31.99zm168.749-29.358v-54.272l107.164-52.999-107.164-52.59v-53.927l153.821 83.522v46.183l-153.821 84.083z"/></svg><svg viewBox="0 0 14 14" id="time" xmlns="http://www.w3.org/2000/svg"><path d="M8.75.583h-3.5V1.75h3.5V.583zM6.417 8.166h1.166v-3.5H6.417v3.5zM11.1 4.311l.828-.829a6.45 6.45 0 00-.822-.822l-.829.828A5.228 5.228 0 007 2.333a5.25 5.25 0 105.216 4.662A5.246 5.246 0 0011.1 4.311zM7 11.666a4.08 4.08 0 01-4.083-4.083A4.08 4.08 0 017 3.5a4.08 4.08 0 014.083 4.083A4.08 4.08 0 017 11.666z"/></svg><svg viewBox="0 0 45 16" id="visa" xmlns="http://www.w3.org/2000/svg"><path d="M22.248.484l-3.018 14.48h-3.637L18.65.485h3.599zm15.323 9.335l1.896-5.426 1.083 5.465h-2.98v-.04zm4.063 5.146H45L42.06.484h-3.096c-.697 0-1.277.398-1.548 1.077L31.96 14.965h3.831l.735-2.154h4.643l.465 2.154zm-9.48-4.748c.039-3.83-5.146-4.029-5.108-5.744 0-.519.465-1.077 1.548-1.197.542-.08 1.973-.12 3.599.638l.619-3.032C31.922.523 30.8.244 29.407.244c-3.599 0-6.114 1.955-6.152 4.787-.04 2.075 1.818 3.272 3.172 3.95 1.393.718 1.896 1.197 1.896 1.795 0 .997-1.16 1.396-2.166 1.436-1.82.04-2.902-.518-3.754-.917l-.657 3.191c.85.4 2.399.758 4.024.758 3.869-.04 6.345-1.995 6.384-5.027zM17.102.484l-5.92 14.48h-3.83L4.41 3.397c-.155-.718-.31-.958-.813-1.277C2.708 1.64 1.277 1.162 0 .882L.077.484h6.191c.813 0 1.47.558 1.664 1.476l1.548 8.377L13.272.484h3.83z"/></svg><svg viewBox="0 0 31 31" id="vk" xmlns="http://www.w3.org/2000/svg"><path fill-rule="evenodd" clip-rule="evenodd" d="M15.562 22.259h1.24s.372-.063.558-.248c.186-.186.186-.558.186-.558s0-1.613.744-1.86c.744-.248 1.736 1.611 2.727 2.294.745.558 1.303.433 1.303.433l2.727-.061s1.427-.063.744-1.24c-.061-.063-.372-.806-2.046-2.356-1.736-1.613-1.488-1.303.558-4.093 1.24-1.674 1.736-2.665 1.613-3.162-.125-.433-1.055-.31-1.055-.31h-3.1s-.247-.062-.371.063c-.187.123-.248.31-.248.31s-.497 1.302-1.116 2.418c-1.364 2.294-1.922 2.418-2.108 2.294-.496-.31-.372-1.364-.372-2.046 0-2.232.372-3.162-.683-3.41-.31-.063-.558-.125-1.425-.125-1.117 0-2.046 0-2.543.248-.371.187-.62.559-.434.559.187 0 .682.123.93.433.248.558.248 1.489.248 1.489s.187 2.665-.433 2.976c-.434.248-.992-.248-2.232-2.356-.62-1.055-1.116-2.295-1.116-2.295s-.062-.248-.248-.372c-.186-.123-.496-.186-.496-.186H6.2s-.434 0-.62.186c-.124.186 0 .496 0 .496s2.294 5.333 4.897 8.06c2.418 2.605 5.085 2.419 5.085 2.419z"/></svg></svg>