<svg width="23" height="23" viewBox="0 0 23 23" fill="none" xmlns="http://www.w3.org/2000/svg">
<rect x="1" y="1" width="20.8636" height="20.8636" rx="6" stroke="#F9A43F" stroke-width="2"/>
<path d="M17.9359 8.16176C18.0316 7.84921 17.9359 7.62 17.4833 7.62H15.984C15.6025 7.62 15.4281 7.81829 15.3324 8.03606C15.3324 8.03606 14.5701 9.86366 13.4899 11.0487C13.1412 11.3935 12.9819 11.5024 12.7918 11.5024C12.6968 11.5024 12.5587 11.3935 12.5587 11.0809V8.16176C12.5587 7.78669 12.4486 7.62 12.1307 7.62H9.77473C9.5368 7.62 9.39323 7.79342 9.39323 7.95877C9.39323 8.31366 9.93334 8.39567 9.98872 9.39584V11.5656C9.98872 12.0408 9.90189 12.1275 9.71046 12.1275C9.20248 12.1275 7.96638 10.2932 7.23278 8.19335C7.08989 7.78535 6.94564 7.62067 6.56277 7.62067H5.06413C4.63546 7.62067 4.55 7.81896 4.55 8.03674C4.55 8.42793 5.05798 10.3637 6.91624 12.924C8.15508 14.6723 9.89916 15.62 11.488 15.62C12.4404 15.62 12.558 15.4096 12.558 15.0467V13.7252C12.558 13.3044 12.6489 13.2197 12.9504 13.2197C13.172 13.2197 13.5535 13.33 14.4429 14.1722C15.4589 15.171 15.6271 15.6193 16.198 15.6193H17.6966C18.1246 15.6193 18.3386 15.4089 18.2155 14.9935C18.0808 14.5802 17.5954 13.9786 16.9514 13.2668C16.6013 12.8608 16.0783 12.4239 15.919 12.2054C15.6968 11.9238 15.7611 11.7995 15.919 11.5494C15.9197 11.5501 17.7458 9.02145 17.9359 8.16176V8.16176Z" fill="#F9A43F"/>
</svg>
